<svg width="17" height="17" viewBox="0 0 17 17" fill="none" xmlns="http://www.w3.org/2000/svg">
<path d="M16.703 11.521V1.021C16.703 0.605371 16.3209 0.270996 15.8459 0.270996H4.13157C2.23872 0.270996 0.703003 1.61475 0.703003 3.271V13.271C0.703003 14.9272 2.23872 16.271 4.13157 16.271H15.8459C16.3209 16.271 16.703 15.9366 16.703 15.521V15.021C16.703 14.7866 16.578 14.5741 16.3851 14.4366C16.2351 13.9554 16.2351 12.5835 16.3851 12.1022C16.578 11.9679 16.703 11.7554 16.703 11.521ZM5.27443 4.4585C5.27443 4.35537 5.37086 4.271 5.48872 4.271H13.0601C13.178 4.271 13.2744 4.35537 13.2744 4.4585V5.0835C13.2744 5.18662 13.178 5.271 13.0601 5.271H5.48872C5.37086 5.271 5.27443 5.18662 5.27443 5.0835V4.4585ZM5.27443 6.4585C5.27443 6.35537 5.37086 6.271 5.48872 6.271H13.0601C13.178 6.271 13.2744 6.35537 13.2744 6.4585V7.0835C13.2744 7.18662 13.178 7.271 13.0601 7.271H5.48872C5.37086 7.271 5.27443 7.18662 5.27443 7.0835V6.4585ZM14.3244 14.271H4.13157C3.49943 14.271 2.98872 13.8241 2.98872 13.271C2.98872 12.721 3.503 12.271 4.13157 12.271H14.3244C14.2566 12.8054 14.2566 13.7366 14.3244 14.271Z" fill="black"/>
</svg>
